<?xml version="1.0" encoding="utf-8"?>
<!-- Generator: Adobe Illustrator 22.1.0, SVG Export Plug-In . SVG Version: 6.00 Build 0)  -->
<svg version="1.1" id="图层_1" xmlns="http://www.w3.org/2000/svg" xmlns:xlink="http://www.w3.org/1999/xlink" x="0px" y="0px"
	 viewBox="0 0 200 200" style="enable-background:new 0 0 200 200;" xml:space="preserve">
<style type="text/css">
	.st0{fill:#FFFFFF;}
</style>
<path class="st0" d="M21.9,81.2c0,32.8,26.6,59.4,59.4,59.4c13.7,0,26.4-4.7,36.4-12.5l49.5,49.5c0.6,0.6,1.6,0.6,2.2,0l8.3-8.3
	c0.6-0.6,0.6-1.6,0-2.2l-49.5-49.5c7.8-10.1,12.5-22.7,12.5-36.4c0-32.8-26.6-59.4-59.4-59.4S21.9,48.5,21.9,81.2z M36.7,81.2
	c0-11.9,4.6-23.1,13-31.5c8.4-8.4,19.6-13,31.5-13s23.1,4.6,31.5,13c8.4,8.4,13,19.6,13,31.5s-4.6,23.1-13,31.5
	c-8.4,8.4-19.6,13-31.5,13s-23.1-4.6-31.5-13C41.3,104.3,36.7,93.1,36.7,81.2z"/>
</svg>