<?xml version="1.0" encoding="UTF-8"?>
<svg width="124px" height="124px" viewBox="0 0 124 124" version="1.1" xmlns="http://www.w3.org/2000/svg" xmlns:xlink="http://www.w3.org/1999/xlink">
    <!-- Generator: Sketch 60 (88103) - https://sketch.com -->
    <title>节点/地点-选中</title>
    <desc>Created with Sketch.</desc>
    <defs>
        <circle id="path-1" cx="16" cy="16" r="16"></circle>
        <filter x="-229.7%" y="-229.7%" width="559.4%" height="559.4%" filterUnits="objectBoundingBox" id="filter-2">
            <feOffset dx="0" dy="0" in="SourceAlpha" result="shadowOffsetOuter1"></feOffset>
            <feGaussianBlur stdDeviation="24.5" in="shadowOffsetOuter1" result="shadowBlurOuter1"></feGaussianBlur>
            <feColorMatrix values="0 0 0 0 0   0 0 0 0 0.477014667   0 0 0 0 0.60730865  0 0 0 1 0" type="matrix" in="shadowBlurOuter1"></feColorMatrix>
        </filter>
        <circle id="path-3" cx="16" cy="16" r="2.625"></circle>
        <filter x="-171.4%" y="-171.4%" width="442.9%" height="442.9%" filterUnits="objectBoundingBox" id="filter-4">
            <feOffset dx="0" dy="0" in="SourceAlpha" result="shadowOffsetOuter1"></feOffset>
            <feGaussianBlur stdDeviation="3" in="shadowOffsetOuter1" result="shadowBlurOuter1"></feGaussianBlur>
            <feColorMatrix values="0 0 0 0 1   0 0 0 0 1   0 0 0 0 1  0 0 0 1 0" type="matrix" in="shadowBlurOuter1"></feColorMatrix>
        </filter>
    </defs>
    <g id="页面-1" stroke="none" stroke-width="1" fill="none" fill-rule="evenodd">
        <g id="画板" transform="translate(-158.000000, -632.000000)">
            <g id="节点/地点-选中" transform="translate(193.000000, 667.000000)">
                <g id="节点/地点-未选中备份">
                    <g id="节点/机构-未选中备份" transform="translate(11.000000, 11.000000)">
                        <g id="大节点备份-10">
                            <g id="椭圆形">
                                <use fill="black" fill-opacity="1" filter="url(#filter-2)" xlink:href="#path-1"></use>
                                <use fill="#003542" fill-rule="evenodd" xlink:href="#path-1"></use>
                            </g>
                            <circle id="椭圆形" fill="#006377" cx="16.2857143" cy="16.2857143" r="12"></circle>
                            <path d="M16.2857143,30.2631775 C19.9817907,26.2671951 22.4002092,23.5653106 23.5409698,22.1575239 C24.8405004,20.5538026 25.6190476,18.5106782 25.6190476,16.2857143 C25.6190476,11.1310566 21.440372,6.95238095 16.2857143,6.95238095 C11.1310566,6.95238095 6.95238095,11.1310566 6.95238095,16.2857143 C6.95238095,18.5022743 7.72505798,20.5383659 9.01575574,22.1393329 C10.1563207,23.5540768 12.5796402,26.262025 16.2857143,30.2631775 Z" id="椭圆形备份-3" fill="#28B4BA"></path>
                            <circle id="椭圆形备份-4" fill="#00445F" cx="16" cy="16" r="3.9375"></circle>
                            <g id="椭圆形备份-5">
                                <use fill="black" fill-opacity="1" filter="url(#filter-4)" xlink:href="#path-3"></use>
                                <use fill="#FFFFFF" fill-rule="evenodd" xlink:href="#path-3"></use>
                            </g>
                        </g>
                    </g>
                </g>
                <g id="节点/机构-选中备份">
                    <path d="M8,0 L8,3 L3,3 L3,8 L0,8 L0,0 L8,0 Z" id="形状结合备份-9" fill="#28B4BA"></path>
                    <rect id="矩形备份-3" fill-opacity="0.1" fill="#FFFFFF" x="6" y="2" width="42" height="1"></rect>
                    <rect id="矩形备份-13" fill-opacity="0.1" fill="#FFFFFF" x="51" y="6" width="1" height="42"></rect>
                    <rect id="矩形备份-14" fill-opacity="0.1" fill="#FFFFFF" x="2" y="6" width="1" height="42"></rect>
                    <rect id="矩形备份-15" fill-opacity="0.1" fill="#FFFFFF" x="6" y="51" width="42" height="1"></rect>
                    <path d="M8,46 L8,49 L3,49 L3,54 L0,54 L0,46 L8,46 Z" id="形状结合备份-10" fill="#28B4BA" transform="translate(4.000000, 50.000000) scale(1, -1) translate(-4.000000, -50.000000) "></path>
                    <path d="M54,0 L54,3 L49,3 L49,8 L46,8 L46,0 L54,0 Z" id="形状结合备份-11" fill="#28B4BA" transform="translate(50.000000, 4.000000) scale(-1, 1) translate(-50.000000, -4.000000) "></path>
                    <path d="M54,46 L54,49 L49,49 L49,54 L46,54 L46,46 L54,46 Z" id="形状结合备份-12" fill="#28B4BA" transform="translate(50.000000, 50.000000) scale(-1, -1) translate(-50.000000, -50.000000) "></path>
                </g>
            </g>
        </g>
    </g>
</svg>