<?xml version="1.0" encoding="UTF-8"?>
<svg width="54px" height="54px" viewBox="0 0 54 54" version="1.1" xmlns="http://www.w3.org/2000/svg" xmlns:xlink="http://www.w3.org/1999/xlink">
    <!-- Generator: Sketch 60 (88103) - https://sketch.com -->
    <title>节点/事件-选中备份 2</title>
    <desc>Created with Sketch.</desc>
    <defs>
        <circle id="path-1" cx="8" cy="8" r="3"></circle>
        <filter x="-200.0%" y="-200.0%" width="500.0%" height="500.0%" filterUnits="objectBoundingBox" id="filter-2">
            <feOffset dx="0" dy="0" in="SourceAlpha" result="shadowOffsetOuter1"></feOffset>
            <feGaussianBlur stdDeviation="4" in="shadowOffsetOuter1" result="shadowBlurOuter1"></feGaussianBlur>
            <feColorMatrix values="0 0 0 0 1   0 0 0 0 1   0 0 0 0 1  0 0 0 1 0" type="matrix" in="shadowBlurOuter1"></feColorMatrix>
        </filter>
    </defs>
    <g id="节点/事件-选中备份-2" stroke="none" stroke-width="1" fill="none" fill-rule="evenodd">
        <g id="节点/小备份">
            <g id="编组备份" transform="translate(19.000000, 19.000000)">
                <circle id="椭圆形备份" fill="#0091E2" cx="8" cy="8" r="8"></circle>
                <g id="椭圆形">
                    <use fill="black" fill-opacity="1" filter="url(#filter-2)" xlink:href="#path-1"></use>
                    <use fill="#FFFFFF" fill-rule="evenodd" xlink:href="#path-1"></use>
                </g>
            </g>
        </g>
        <g id="节点/机构-选中备份-2">
            <path d="M8,0 L8,3 L3,3 L3,8 L0,8 L0,0 L8,0 Z" id="形状结合备份-9" fill="#1097E3"></path>
            <rect id="矩形备份-3" fill-opacity="0.1" fill="#FFFFFF" x="6" y="2" width="42" height="1"></rect>
            <rect id="矩形备份-13" fill-opacity="0.1" fill="#FFFFFF" x="51" y="6" width="1" height="42"></rect>
            <rect id="矩形备份-14" fill-opacity="0.1" fill="#FFFFFF" x="2" y="6" width="1" height="42"></rect>
            <rect id="矩形备份-15" fill-opacity="0.1" fill="#FFFFFF" x="6" y="51" width="42" height="1"></rect>
            <path d="M8,46 L8,49 L3,49 L3,54 L0,54 L0,46 L8,46 Z" id="形状结合备份-10" fill="#1097E3" transform="translate(4.000000, 50.000000) scale(1, -1) translate(-4.000000, -50.000000) "></path>
            <path d="M54,0 L54,3 L49,3 L49,8 L46,8 L46,0 L54,0 Z" id="形状结合备份-11" fill="#1097E3" transform="translate(50.000000, 4.000000) scale(-1, 1) translate(-50.000000, -4.000000) "></path>
            <path d="M54,46 L54,49 L49,49 L49,54 L46,54 L46,46 L54,46 Z" id="形状结合备份-12" fill="#1097E3" transform="translate(50.000000, 50.000000) scale(-1, -1) translate(-50.000000, -50.000000) "></path>
        </g>
    </g>
</svg>