<?xml version="1.0" encoding="UTF-8"?>
<svg width="54px" height="54px" viewBox="0 0 54 54" version="1.1" xmlns="http://www.w3.org/2000/svg" xmlns:xlink="http://www.w3.org/1999/xlink">
    <!-- Generator: Sketch 60 (88103) - https://sketch.com -->
    <title>节点/民族-选中备份 2</title>
    <desc>Created with Sketch.</desc>
    <defs>
        <path d="M15,6.54266619 L17.4766662,9.01966619 L20.9802381,9.01976191 L20.9796662,12.5226662 L23.4573338,15 L20.9796662,17.4766662 L20.9802381,20.9802381 L17.4766662,20.9796662 L15,23.4573338 L12.5226662,20.9796662 L9.01976191,20.9802381 L9.01966619,17.4766662 L6.54266619,15 L9.01966619,12.5226662 L9.01976191,9.01976191 L12.5226662,9.01966619 L15,6.54266619 Z" id="path-1"></path>
        <filter x="-177.4%" y="-177.4%" width="454.7%" height="454.7%" filterUnits="objectBoundingBox" id="filter-2">
            <feOffset dx="0" dy="0" in="SourceAlpha" result="shadowOffsetOuter1"></feOffset>
            <feGaussianBlur stdDeviation="10" in="shadowOffsetOuter1" result="shadowBlurOuter1"></feGaussianBlur>
            <feColorMatrix values="0 0 0 0 1   0 0 0 0 0.499562937   0 0 0 0 0  0 0 0 1 0" type="matrix" in="shadowBlurOuter1"></feColorMatrix>
        </filter>
        <rect id="path-3" x="13" y="13" width="4" height="4"></rect>
        <filter x="-300.0%" y="-300.0%" width="700.0%" height="700.0%" filterUnits="objectBoundingBox" id="filter-4">
            <feOffset dx="0" dy="0" in="SourceAlpha" result="shadowOffsetOuter1"></feOffset>
            <feGaussianBlur stdDeviation="4" in="shadowOffsetOuter1" result="shadowBlurOuter1"></feGaussianBlur>
            <feColorMatrix values="0 0 0 0 1   0 0 0 0 0   0 0 0 0 0.90111451  0 0 0 1 0" type="matrix" in="shadowBlurOuter1"></feColorMatrix>
        </filter>
    </defs>
    <g id="节点/民族-选中备份-2" stroke="none" stroke-width="1" fill="none" fill-rule="evenodd">
        <g id="节点/党派-选中备份">
            <path d="M8,0 L8,3 L3,3 L3,8 L0,8 L0,0 L8,0 Z" id="形状结合" fill="#FD5166"></path>
            <rect id="矩形" fill-opacity="0.1" fill="#FFFFFF" x="6" y="2" width="42" height="1"></rect>
            <rect id="矩形备份-6" fill-opacity="0.1" fill="#FFFFFF" x="51" y="6" width="1" height="42"></rect>
            <rect id="矩形备份-7" fill-opacity="0.1" fill="#FFFFFF" x="2" y="6" width="1" height="42"></rect>
            <rect id="矩形备份-5" fill-opacity="0.1" fill="#FFFFFF" x="6" y="51" width="42" height="1"></rect>
            <path d="M8,46 L8,49 L3,49 L3,54 L0,54 L0,46 L8,46 Z" id="形状结合备份-2" fill="#FD5166" transform="translate(4.000000, 50.000000) scale(1, -1) translate(-4.000000, -50.000000) "></path>
            <path d="M54,0 L54,3 L49,3 L49,8 L46,8 L46,0 L54,0 Z" id="形状结合备份" fill="#FD5166" transform="translate(50.000000, 4.000000) scale(-1, 1) translate(-50.000000, -4.000000) "></path>
            <path d="M54,46 L54,49 L49,49 L49,54 L46,54 L46,46 L54,46 Z" id="形状结合备份-3" fill="#FD5166" transform="translate(50.000000, 50.000000) scale(-1, -1) translate(-50.000000, -50.000000) "></path>
        </g>
        <g id="节点/民族-未选中备份">
            <g id="大节点备份-4" transform="translate(12.000000, 12.000000)">
                <polygon id="矩形备份" fill-opacity="0.8" fill="#C5312A" fill-rule="nonzero" points="0.0197619104 8.01976191 8.01976191 0.0197619104 21.9802381 0.0197619104 29.9802381 8.01976191 29.9802381 21.9802381 21.9802381 29.9802381 8.01976191 29.9802381 0.0197619104 21.9802381"></polygon>
                <g id="形状结合" fill-rule="nonzero">
                    <use fill="black" fill-opacity="1" filter="url(#filter-2)" xlink:href="#path-1"></use>
                    <use fill="#FD5A5A" xlink:href="#path-1"></use>
                </g>
                <g id="矩形">
                    <use fill="black" fill-opacity="1" filter="url(#filter-4)" xlink:href="#path-3"></use>
                    <use fill="#FFFFFF" fill-rule="evenodd" xlink:href="#path-3"></use>
                </g>
            </g>
        </g>
    </g>
</svg>