<?xml version="1.0" encoding="UTF-8"?>
<svg width="120px" height="119px" viewBox="0 0 120 119" version="1.1" xmlns="http://www.w3.org/2000/svg" xmlns:xlink="http://www.w3.org/1999/xlink">
    <!-- Generator: Sketch 60 (88103) - https://sketch.com -->
    <title>节点/党派-选中</title>
    <desc>Created with Sketch.</desc>
    <defs>
        <path d="M13.5220341,0.400260359 L20.4779659,0.400260359 L33.5439977,23.4002604 L30.0660318,29.3760522 L3.93396817,29.3760522 L0.456002305,23.4002604 L13.5220341,0.400260359 Z M17,10.4740712 L10.8067117,21.3760522 L23.1932883,21.3760522 L17,10.4740712 Z" id="path-1"></path>
        <filter x="-217.6%" y="-248.5%" width="535.2%" height="597.0%" filterUnits="objectBoundingBox" id="filter-2">
            <feOffset dx="0" dy="0" in="SourceAlpha" result="shadowOffsetOuter1"></feOffset>
            <feGaussianBlur stdDeviation="24" in="shadowOffsetOuter1" result="shadowBlurOuter1"></feGaussianBlur>
            <feComposite in="shadowBlurOuter1" in2="SourceAlpha" operator="out" result="shadowBlurOuter1"></feComposite>
            <feColorMatrix values="0 0 0 0 1   0 0 0 0 0.421383304   0 0 0 0 0  0 0 0 0.8 0" type="matrix" in="shadowBlurOuter1"></feColorMatrix>
        </filter>
        <polygon id="path-3" points="17 7.41788694 25 21.4178869 9 21.4178869"></polygon>
        <filter x="-225.0%" y="-257.1%" width="550.0%" height="614.3%" filterUnits="objectBoundingBox" id="filter-4">
            <feOffset dx="0" dy="0" in="SourceAlpha" result="shadowOffsetOuter1"></feOffset>
            <feGaussianBlur stdDeviation="12" in="shadowOffsetOuter1" result="shadowBlurOuter1"></feGaussianBlur>
            <feColorMatrix values="0 0 0 0 1   0 0 0 0 0.635434878   0 0 0 0 0  0 0 0 1 0" type="matrix" in="shadowBlurOuter1"></feColorMatrix>
        </filter>
        <polygon id="path-5" points="17 10.0620183 20.3299531 15.9237001 13.6700469 15.9237001"></polygon>
        <filter x="-180.2%" y="-204.7%" width="460.4%" height="509.4%" filterUnits="objectBoundingBox" id="filter-6">
            <feOffset dx="0" dy="0" in="SourceAlpha" result="shadowOffsetOuter1"></feOffset>
            <feGaussianBlur stdDeviation="4" in="shadowOffsetOuter1" result="shadowBlurOuter1"></feGaussianBlur>
            <feColorMatrix values="0 0 0 0 1   0 0 0 0 1   0 0 0 0 1  0 0 0 1 0" type="matrix" in="shadowBlurOuter1"></feColorMatrix>
        </filter>
    </defs>
    <g id="页面-1" stroke="none" stroke-width="1" fill="none" fill-rule="evenodd">
        <g id="画板" transform="translate(-160.000000, -976.000000)">
            <g id="节点/党派-选中" transform="translate(193.000000, 1009.000000)">
                <path d="M8,0 L8,3 L3,3 L3,8 L0,8 L0,0 L8,0 Z" id="形状结合" fill="#FDA547"></path>
                <rect id="矩形" fill-opacity="0.1" fill="#FFFFFF" x="6" y="2" width="42" height="1"></rect>
                <rect id="矩形备份-6" fill-opacity="0.1" fill="#FFFFFF" x="51" y="6" width="1" height="42"></rect>
                <rect id="矩形备份-7" fill-opacity="0.1" fill="#FFFFFF" x="2" y="6" width="1" height="42"></rect>
                <rect id="矩形备份-5" fill-opacity="0.1" fill="#FFFFFF" x="6" y="51" width="42" height="1"></rect>
                <path d="M8,46 L8,49 L3,49 L3,54 L0,54 L0,46 L8,46 Z" id="形状结合备份-2" fill="#FDA547" transform="translate(4.000000, 50.000000) scale(1, -1) translate(-4.000000, -50.000000) "></path>
                <path d="M54,0 L54,3 L49,3 L49,8 L46,8 L46,0 L54,0 Z" id="形状结合备份" fill="#FDA547" transform="translate(50.000000, 4.000000) scale(-1, 1) translate(-50.000000, -4.000000) "></path>
                <path d="M54,46 L54,49 L49,49 L49,54 L46,54 L46,46 L54,46 Z" id="形状结合备份-3" fill="#FDA547" transform="translate(50.000000, 50.000000) scale(-1, -1) translate(-50.000000, -50.000000) "></path>
                <g id="大节点备份-8" stroke-width="1" transform="translate(10.000000, 12.827774)">
                    <g id="三角形" transform="translate(17.000000, 14.888156) rotate(-180.000000) translate(-17.000000, -14.888156) ">
                        <use fill="black" fill-opacity="1" filter="url(#filter-2)" xlink:href="#path-1"></use>
                        <use fill-opacity="0.7" fill="#FF8433" fill-rule="evenodd" xlink:href="#path-1"></use>
                    </g>
                    <g id="三角形备份-2" transform="translate(17.000000, 14.417887) rotate(-180.000000) translate(-17.000000, -14.417887) ">
                        <use fill="black" fill-opacity="1" filter="url(#filter-4)" xlink:href="#path-3"></use>
                        <use fill="#FFC039" fill-rule="evenodd" xlink:href="#path-3"></use>
                    </g>
                    <g id="三角形备份" transform="translate(17.000000, 12.992859) rotate(-180.000000) translate(-17.000000, -12.992859) ">
                        <use fill="black" fill-opacity="1" filter="url(#filter-6)" xlink:href="#path-5"></use>
                        <use fill="#FFFFFF" fill-rule="evenodd" xlink:href="#path-5"></use>
                    </g>
                </g>
            </g>
        </g>
    </g>
</svg>