<?xml version="1.0" encoding="UTF-8"?>
<svg width="122px" height="122px" viewBox="0 0 122 122" version="1.1" xmlns="http://www.w3.org/2000/svg" xmlns:xlink="http://www.w3.org/1999/xlink">
    <!-- Generator: Sketch 60 (88103) - https://sketch.com -->
    <title>节点/人物-选中</title>
    <desc>Created with Sketch.</desc>
    <defs>
        <circle id="path-1" cx="16" cy="16" r="16"></circle>
        <filter x="-225.0%" y="-225.0%" width="550.0%" height="550.0%" filterUnits="objectBoundingBox" id="filter-2">
            <feOffset dx="0" dy="0" in="SourceAlpha" result="shadowOffsetOuter1"></feOffset>
            <feGaussianBlur stdDeviation="24" in="shadowOffsetOuter1" result="shadowBlurOuter1"></feGaussianBlur>
            <feComposite in="shadowBlurOuter1" in2="SourceAlpha" operator="out" result="shadowBlurOuter1"></feComposite>
            <feColorMatrix values="0 0 0 0 0.0413941395   0 0 0 0 0.940047554   0 0 0 0 0  0 0 0 0.8 0" type="matrix" in="shadowBlurOuter1"></feColorMatrix>
        </filter>
        <circle id="path-3" cx="16" cy="16" r="7"></circle>
        <filter x="-192.9%" y="-192.9%" width="485.7%" height="485.7%" filterUnits="objectBoundingBox" id="filter-4">
            <feOffset dx="0" dy="0" in="SourceAlpha" result="shadowOffsetOuter1"></feOffset>
            <feGaussianBlur stdDeviation="9" in="shadowOffsetOuter1" result="shadowBlurOuter1"></feGaussianBlur>
            <feColorMatrix values="0 0 0 0 0.15362705   0 0 0 0 0.739413496   0 0 0 0 0  0 0 0 1 0" type="matrix" in="shadowBlurOuter1"></feColorMatrix>
        </filter>
        <circle id="path-5" cx="16" cy="16" r="3"></circle>
        <filter x="-200.0%" y="-200.0%" width="500.0%" height="500.0%" filterUnits="objectBoundingBox" id="filter-6">
            <feOffset dx="0" dy="0" in="SourceAlpha" result="shadowOffsetOuter1"></feOffset>
            <feGaussianBlur stdDeviation="4" in="shadowOffsetOuter1" result="shadowBlurOuter1"></feGaussianBlur>
            <feColorMatrix values="0 0 0 0 1   0 0 0 0 1   0 0 0 0 1  0 0 0 1 0" type="matrix" in="shadowBlurOuter1"></feColorMatrix>
        </filter>
    </defs>
    <g id="页面-1" stroke="none" stroke-width="1" fill="none" fill-rule="evenodd">
        <g id="画板" transform="translate(-159.000000, -415.000000)">
            <g id="节点/人物-选中" transform="translate(193.000000, 449.000000)">
                <path d="M8,0 L8,3 L3,3 L3,8 L0,8 L0,0 L8,0 Z" id="形状结合备份-5" fill="#23E09A"></path>
                <rect id="矩形备份-2" fill-opacity="0.1" fill="#FFFFFF" x="6" y="2" width="42" height="1"></rect>
                <rect id="矩形备份-10" fill-opacity="0.1" fill="#FFFFFF" x="51" y="6" width="1" height="42"></rect>
                <rect id="矩形备份-11" fill-opacity="0.1" fill="#FFFFFF" x="2" y="6" width="1" height="42"></rect>
                <rect id="矩形备份-12" fill-opacity="0.1" fill="#FFFFFF" x="6" y="51" width="42" height="1"></rect>
                <path d="M8,46 L8,49 L3,49 L3,54 L0,54 L0,46 L8,46 Z" id="形状结合备份-6" fill="#23E09A" transform="translate(4.000000, 50.000000) scale(1, -1) translate(-4.000000, -50.000000) "></path>
                <path d="M54,0 L54,3 L49,3 L49,8 L46,8 L46,0 L54,0 Z" id="形状结合备份-7" fill="#23E09A" transform="translate(50.000000, 4.000000) scale(-1, 1) translate(-50.000000, -4.000000) "></path>
                <path d="M54,46 L54,49 L49,49 L49,54 L46,54 L46,46 L54,46 Z" id="形状结合备份-8" fill="#23E09A" transform="translate(50.000000, 50.000000) scale(-1, -1) translate(-50.000000, -50.000000) "></path>
                <g id="大节点备份-9" stroke-width="1" transform="translate(11.000000, 11.000000)">
                    <g id="形状结合备份-4">
                        <use fill="black" fill-opacity="1" filter="url(#filter-2)" xlink:href="#path-1"></use>
                        <use fill-opacity="0.8" fill="#00B3BF" fill-rule="evenodd" xlink:href="#path-1"></use>
                    </g>
                    <g id="椭圆形备份-3">
                        <use fill="black" fill-opacity="1" filter="url(#filter-4)" xlink:href="#path-3"></use>
                        <use fill="#00DC8B" fill-rule="evenodd" xlink:href="#path-3"></use>
                    </g>
                    <g id="椭圆形备份-4">
                        <use fill="black" fill-opacity="1" filter="url(#filter-6)" xlink:href="#path-5"></use>
                        <use fill="#FFFFFF" fill-rule="evenodd" xlink:href="#path-5"></use>
                    </g>
                </g>
            </g>
        </g>
    </g>
</svg>