<?xml version="1.0" encoding="UTF-8"?>
<svg width="122px" height="122px" viewBox="0 0 122 122" version="1.1" xmlns="http://www.w3.org/2000/svg" xmlns:xlink="http://www.w3.org/1999/xlink">
    <!-- Generator: Sketch 60 (88103) - https://sketch.com -->
    <title>节点/宗教-选中</title>
    <desc>Created with Sketch.</desc>
    <defs>
        <polygon id="path-1" points="0.0197619104 4.01976191 4.01976191 0.0197619104 25.9802381 0.0197619104 29.9802381 4.01976191 29.9802381 25.9802381 25.9802381 29.9802381 4.01976191 29.9802381 0.0197619104 25.9802381"></polygon>
        <filter x="-240.3%" y="-240.3%" width="580.6%" height="580.6%" filterUnits="objectBoundingBox" id="filter-2">
            <feOffset dx="0" dy="0" in="SourceAlpha" result="shadowOffsetOuter1"></feOffset>
            <feGaussianBlur stdDeviation="24" in="shadowOffsetOuter1" result="shadowBlurOuter1"></feGaussianBlur>
            <feComposite in="shadowBlurOuter1" in2="SourceAlpha" operator="out" result="shadowBlurOuter1"></feComposite>
            <feColorMatrix values="0 0 0 0 0.907099185   0 0 0 0 0   0 0 0 0 0.793063859  0 0 0 1 0" type="matrix" in="shadowBlurOuter1"></feColorMatrix>
        </filter>
        <polygon id="path-3" points="9.01976191 9.01976191 9.01976191 20.9802381 20.9802381 20.9802381 20.9802381 9.01976191"></polygon>
        <filter x="-250.8%" y="-250.8%" width="601.7%" height="601.7%" filterUnits="objectBoundingBox" id="filter-4">
            <feOffset dx="0" dy="0" in="SourceAlpha" result="shadowOffsetOuter1"></feOffset>
            <feGaussianBlur stdDeviation="10" in="shadowOffsetOuter1" result="shadowBlurOuter1"></feGaussianBlur>
            <feColorMatrix values="0 0 0 0 0.532405337   0 0 0 0 0.307274297   0 0 0 0 0.561990489  0 0 0 1 0" type="matrix" in="shadowBlurOuter1"></feColorMatrix>
        </filter>
        <rect id="path-5" x="13" y="13" width="4" height="4"></rect>
        <filter x="-300.0%" y="-300.0%" width="700.0%" height="700.0%" filterUnits="objectBoundingBox" id="filter-6">
            <feOffset dx="0" dy="0" in="SourceAlpha" result="shadowOffsetOuter1"></feOffset>
            <feGaussianBlur stdDeviation="4" in="shadowOffsetOuter1" result="shadowBlurOuter1"></feGaussianBlur>
            <feColorMatrix values="0 0 0 0 1   0 0 0 0 0   0 0 0 0 0.90111451  0 0 0 1 0" type="matrix" in="shadowBlurOuter1"></feColorMatrix>
        </filter>
    </defs>
    <g id="页面-1" stroke="none" stroke-width="1" fill="none" fill-rule="evenodd">
        <g id="画板" transform="translate(-159.000000, -858.000000)">
            <g id="节点/宗教-选中" transform="translate(193.000000, 893.000000)">
                <path d="M8,0 L8,3 L3,3 L3,8 L0,8 L0,0 L8,0 Z" id="形状结合备份-13" fill="#BD2DC5" fill-rule="nonzero"></path>
                <rect id="矩形备份-16" fill-opacity="0.1" fill="#FFFFFF" fill-rule="evenodd" x="6" y="2" width="42" height="1"></rect>
                <rect id="矩形备份-17" fill-opacity="0.1" fill="#FFFFFF" fill-rule="evenodd" x="51" y="6" width="1" height="42"></rect>
                <rect id="矩形备份-18" fill-opacity="0.1" fill="#FFFFFF" fill-rule="evenodd" x="2" y="6" width="1" height="42"></rect>
                <rect id="矩形备份-19" fill-opacity="0.1" fill="#FFFFFF" fill-rule="evenodd" x="6" y="51" width="42" height="1"></rect>
                <path d="M8,46 L8,49 L3,49 L3,54 L0,54 L0,46 L8,46 Z" id="形状结合备份-14" fill="#BD2DC5" fill-rule="nonzero" transform="translate(4.000000, 50.000000) scale(1, -1) translate(-4.000000, -50.000000) "></path>
                <path d="M54,0 L54,3 L49,3 L49,8 L46,8 L46,0 L54,0 Z" id="形状结合备份-15" fill="#BD2DC5" fill-rule="nonzero" transform="translate(50.000000, 4.000000) scale(-1, 1) translate(-50.000000, -4.000000) "></path>
                <path d="M54,46 L54,49 L49,49 L49,54 L46,54 L46,46 L54,46 Z" id="形状结合备份-16" fill="#BD2DC5" fill-rule="nonzero" transform="translate(50.000000, 50.000000) scale(-1, -1) translate(-50.000000, -50.000000) "></path>
                <g id="大节点备份-6" stroke-width="1" fill-rule="evenodd" transform="translate(12.000000, 11.000000)">
                    <g id="矩形备份" fill-rule="nonzero">
                        <use fill="black" fill-opacity="1" filter="url(#filter-2)" xlink:href="#path-1"></use>
                        <use fill-opacity="0.8" fill="#9F29E2" xlink:href="#path-1"></use>
                    </g>
                    <g id="路径" fill-rule="nonzero">
                        <use fill="black" fill-opacity="1" filter="url(#filter-4)" xlink:href="#path-3"></use>
                        <use fill="#EB40D5" xlink:href="#path-3"></use>
                    </g>
                    <g id="矩形">
                        <use fill="black" fill-opacity="1" filter="url(#filter-6)" xlink:href="#path-5"></use>
                        <use fill="#FFFFFF" fill-rule="evenodd" xlink:href="#path-5"></use>
                    </g>
                </g>
            </g>
        </g>
    </g>
</svg>